<svg xmlns="http://www.w3.org/2000/svg" xmlns:xlink="http://www.w3.org/1999/xlink" width="439" height="518" viewBox="0 0 439 518">
  <defs>
    <clipPath id="clip-path">
      <path id="Rectangle_23" data-name="Rectangle 23" d="M40,0H399a40,40,0,0,1,40,40V478a40,40,0,0,1-40,40H0a0,0,0,0,1,0,0V40A40,40,0,0,1,40,0Z" transform="translate(1427 1935)" fill="#f4f4f4"/>
    </clipPath>
  </defs>
  <g id="Mask_Group_6" data-name="Mask Group 6" transform="translate(-1427 -1935)" clip-path="url(#clip-path)">
    <g id="networking" transform="translate(1374.173 1850.173)">
      <g id="Group_6" data-name="Group 6" transform="translate(0 0)">
        <path id="Path_28" data-name="Path 28" d="M317.415,141a35.325,35.325,0,0,0-33.181,23.176H241.768a64.979,64.979,0,0,0-10.509-25.336l30.014-30.014A35.423,35.423,0,1,0,244,91.554l-30.014,30.014a66.079,66.079,0,0,0-25.336-10.509V68.593a35.412,35.412,0,1,0-24.472,0v42.466a64.978,64.978,0,0,0-25.336,10.509L108.828,91.554a35.423,35.423,0,1,0-17.274,17.274l30.014,30.014a66.079,66.079,0,0,0-10.509,25.336H68.593a35.412,35.412,0,1,0,0,24.472h42.466a65.43,65.43,0,0,0,10.509,25.336L91.554,244a35.423,35.423,0,1,0,17.274,17.274l30.014-30.014a66.079,66.079,0,0,0,25.336,10.509v42.466a35.412,35.412,0,1,0,24.472,0V241.768a65.431,65.431,0,0,0,25.336-10.509L244,261.273A35.423,35.423,0,1,0,261.273,244l-30.014-30.014a66.079,66.079,0,0,0,10.509-25.336h42.466A35.392,35.392,0,1,0,317.415,141Zm-118.9,57.581a31.382,31.382,0,0,1-53.55-22.169,30.847,30.847,0,0,1,9.213-22.169,31.351,31.351,0,1,1,44.337,44.337Z" transform="translate(0 0)" fill="#c4e5e2"/>
      </g>
    </g>
  </g>
</svg>
