<svg xmlns="http://www.w3.org/2000/svg" xmlns:xlink="http://www.w3.org/1999/xlink" width="43" height="51" viewBox="0 0 439 518">
  <defs>
    <clipPath id="clip-path">
      <path id="Rectangle_22" data-name="Rectangle 22" d="M40,0H399a40,40,0,0,1,40,40V478a40,40,0,0,1-40,40H0a0,0,0,0,1,0,0V40A40,40,0,0,1,40,0Z" transform="translate(519 1935)" fill="#f4f4f4"/>
    </clipPath>
  </defs>
  <g id="Mask_Group_5" data-name="Mask Group 5" transform="translate(-519 -1935)" clip-path="url(#clip-path)">
    <g id="Group_4" data-name="Group 4" transform="translate(-1362.818 464.534)">
      <path id="Path_22" data-name="Path 22" d="M2027.879,1625.028c-32.373,28.284-77.538,25.471-105.46-1.285-27.733-26.574-32.046-69.233-10.355-100a77.3,77.3,0,0,1,51.1-32.351,76.906,76.906,0,0,1,31,1.206,78.09,78.09,0,0,1,27.823,13.079c1.885-9.33,6.672-14.433,14.076-15.248a15.415,15.415,0,0,1,17.148,15.48c.1,16.22.037,32.44.041,48.66,0,15.576-.1,31.153.04,46.726.116,13.349,10.483,23.292,23.8,23.126,9.848-.124,18.036-6.3,21.212-16.286,10.68-33.569,8.821-66.469-7.143-97.886-19.973-39.31-52.259-63-95.762-69.881-69.068-10.93-133.537,35.49-146.322,104.415-12.763,68.8,33.292,136.177,102.146,149.34,31.887,6.1,61.892.838,90.013-15.325,9.024-5.186,18.905-2.612,23.008,6.022,3.542,7.457.893,15.768-6.609,20.269a152.925,152.925,0,0,1-46.4,18.567c-69.867,15.183-139.239-15.834-174.728-78.046-33.389-58.529-25.861-133.83,18.961-184.05,35.486-39.762,80.342-57.858,133.391-54.122,70.728,4.982,130.273,58.651,143.778,128.423,5.4,27.889,4.081,55.379-5.116,82.275-7.592,22.209-23.5,35.094-46.8,36.921-22.843,1.791-40.223-8.305-51.794-28.168C2028.6,1626.336,2028.3,1625.774,2027.879,1625.028Zm-98.387-57.286a46.5,46.5,0,0,0,46.339,46.365c25.276.089,46.339-20.747,46.456-45.957.119-25.764-20.673-46.847-46.187-46.837A46.477,46.477,0,0,0,1929.492,1567.742Z" transform="translate(0)" fill="#c4e5e2"/>
    </g>
  </g>
</svg>
