<svg xmlns="http://www.w3.org/2000/svg" xmlns:xlink="http://www.w3.org/1999/xlink" width="439" height="518" viewBox="0 0 439 518">
  <defs>
    <clipPath id="clip-path">
      <path id="Path_21" data-name="Path 21" d="M40,0H399a40,40,0,0,1,40,40V518H40A40,40,0,0,1,0,478V40A40,40,0,0,1,40,0Z" transform="translate(973 1935)" fill="#f4f4f4"/>
    </clipPath>
  </defs>
  <g id="Mask_Group_4" data-name="Mask Group 4" transform="translate(-973 -1935)" clip-path="url(#clip-path)">
    <path id="Subtraction_1" data-name="Subtraction 1" d="M60.819,326.53a26.158,26.158,0,0,1-26.1-26.133V262.132a163.228,163.228,0,0,1-17.539-27.444A159.71,159.71,0,0,1,5.659,204.717a161.356,161.356,0,0,1-5.306-31.8A168.1,168.1,0,0,1,1.466,140c9.383-71.133,67.84-129.428,139-138.614A168,168,0,0,1,161.909,0,163.879,163.879,0,0,1,193.28,3.027a160.727,160.727,0,0,1,57.532,23.464,163.374,163.374,0,0,1,24.681,19.938A161.671,161.671,0,0,1,322.916,180.5c-8.078,72.576-66.683,132.288-139.349,141.982A161.784,161.784,0,0,1,98.425,310.8L72.513,323.75a26.542,26.542,0,0,1-5.746,2.085A25.91,25.91,0,0,1,60.819,326.53Zm80.3-207.291a7.4,7.4,0,0,0-6.443,3.735L81.569,198.56a7.2,7.2,0,0,0-.018,7.339,7.31,7.31,0,0,0,9.764,2.962L135.2,175.35a7.412,7.412,0,0,1,7.128.274l47.495,28.5a7.405,7.405,0,0,0,10.441-3.039l42.889-74.206a7.208,7.208,0,0,0-.273-7.15,7.548,7.548,0,0,0-6.34-3.615,7.364,7.364,0,0,0-3.827,1.1l-43.322,30.622a7.409,7.409,0,0,1-8.258-.426l-35.577-26.681A7.342,7.342,0,0,0,141.12,119.239Z" transform="translate(927.997 1864.47)" fill="#c4e5e2"/>
  </g>
</svg>
