<svg xmlns="http://www.w3.org/2000/svg" xmlns:xlink="http://www.w3.org/1999/xlink" width="439" height="518" viewBox="0 0 439 518">
  <defs>
    <clipPath id="clip-path">
      <path id="Rectangle_38" data-name="Rectangle 38" d="M40,0H439a0,0,0,0,1,0,0V478a40,40,0,0,1-40,40H40A40,40,0,0,1,0,478V40A40,40,0,0,1,40,0Z" transform="translate(65 2469)" fill="#f4f4f4"/>
    </clipPath>
  </defs>
  <g id="Mask_Group_20" data-name="Mask Group 20" transform="translate(-65 -2469)" clip-path="url(#clip-path)">
    <g id="Group_22" data-name="Group 22" transform="translate(-148.269 2197.159)">
      <path id="Path_50" data-name="Path 50" d="M171.3,303.313q0-72.955,0-145.91c0-7.2.014-7.217,7.036-7.218q121.318,0,242.637,0c6.579,0,6.72.132,6.723,6.669q.018,43.035,0,86.072c0,5.932-.284,6.2-6.279,6.2q-62.156.018-124.312.007c-7.421,0-7.425.005-7.425,7.628,0,62.6-.335,125.2.155,187.794.212,27.134-19.082,54.314-49.7,59.141-38.124,6.01-68.96-23.725-68.864-57.24C171.407,398.744,171.3,351.029,171.3,303.313Z" fill="#c4e5e2"/>
      <path id="Path_51" data-name="Path 51" d="M410.057,260.524q50.874,0,101.747.005c6.423,0,6.53.1,6.53,6.336q.011,86.53-.031,173.06c-.057,30.413-26.443,56.731-56.907,56.78q-90.467.146-180.935.009c-1.464,0-3.52.73-4.251-.761-.82-1.67,1.278-2.534,2.273-3.55,15.258-15.557,22.888-34.3,22.931-55.989q.165-84.229.041-168.457c0-7.419.012-7.43,7.314-7.431Q359.412,260.52,410.057,260.524Zm-.238,78.325h55.689c12.88,0,12.88,0,12.8-12.855-.037-6.036-.037-6.057-6.227-6.058q-58.681-.011-117.362,0c-13.364,0-13.191,0-13.334,13.291-.049,4.5,1.494,5.745,5.839,5.708C368.089,338.749,388.954,338.848,409.819,338.849ZM409.9,378.4h55.229c13.335,0,13.2,0,13.258-13.376.018-4.115-1.148-5.634-5.471-5.62q-63.052.2-126.106.015c-3.887-.01-5.772,1.023-5.374,5.185a38.646,38.646,0,0,1-.006,7.812c-.5,4.568,1.117,6.138,5.879,6.085C368.173,378.261,389.038,378.4,409.9,378.4Z" transform="translate(7.15 7.531)" fill="#c4e5e2"/>
    </g>
  </g>
</svg>
