<svg xmlns="http://www.w3.org/2000/svg" xmlns:xlink="http://www.w3.org/1999/xlink" width="439" height="350" viewBox="0 0 439 350">
  <defs>
    <clipPath id="clip-path">
      <path id="Rectangle_19" data-name="Rectangle 19" d="M40,0H399a40,40,0,0,1,40,40V350a0,0,0,0,1,0,0H40A40,40,0,0,1,0,310V40A40,40,0,0,1,40,0Z" transform="translate(65 1935)"/>
    </clipPath>
  </defs>
  <g id="Mask_Group_1" data-name="Mask Group 1" transform="translate(-65 -1935)" clip-path="url(#clip-path)">
    <g id="Icon_ionic-ios-rocket" data-name="Icon ionic-ios-rocket" transform="translate(5.915 1862.339)">
      <path id="Path_15" data-name="Path 15" d="M326.17,7.771A3.443,3.443,0,0,0,323.6,5.12c-42.424-10.372-140.451,26.593-193.559,79.7a229.556,229.556,0,0,0-25.813,30.492c-16.377-1.482-32.754-.234-46.713,5.849C18.129,138.475,6.665,183.706,3.467,203.124a6.986,6.986,0,0,0,7.643,8.11l63.246-6.941a140.6,140.6,0,0,0,.858,14.271,14.155,14.155,0,0,0,4.133,8.656l24.487,24.487a14.155,14.155,0,0,0,8.656,4.133,140.348,140.348,0,0,0,14.193.858l-6.941,63.168a6.986,6.986,0,0,0,8.11,7.643c19.418-3.119,64.728-14.583,81.962-53.966,6.083-13.959,7.331-30.258,5.927-46.557a229.925,229.925,0,0,0,30.57-25.813C299.655,148.145,336.386,52.3,326.17,7.771ZM198.9,132.47a33.307,33.307,0,1,1,47.1,0A33.277,33.277,0,0,1,198.9,132.47Z" fill="#c4e5e2"/>
      <path id="Path_16" data-name="Path 16" d="M77.689,61.187h0c-3.275,3.275-9.124,5.147-15.441,6.239A20.991,20.991,0,0,1,38.073,43.251c1.092-6.317,2.885-12.166,6.161-15.363l.078-.078a2.607,2.607,0,0,0-2.184-4.445A35.85,35.85,0,0,0,21.15,33.581C7.112,47.618,5.787,99.712,5.787,99.712S57.959,98.386,72,84.349A35.613,35.613,0,0,0,82.212,63.371,2.668,2.668,0,0,0,77.689,61.187Z" transform="translate(24.43 201.517)" fill="#c4e5e2"/>
    </g>
  </g>
</svg>
