<svg xmlns="http://www.w3.org/2000/svg" xmlns:xlink="http://www.w3.org/1999/xlink" width="439" height="518" viewBox="0 0 439 518">
  <defs>
    <clipPath id="clip-path">
      <path id="Rectangle_53" data-name="Rectangle 53" d="M40,0H399a40,40,0,0,1,40,40V478a40,40,0,0,1-40,40H0a0,0,0,0,1,0,0V40A40,40,0,0,1,40,0Z" transform="translate(1422 3021)" fill="#f4f4f4"/>
    </clipPath>
  </defs>
  <g id="Mask_Group_28" data-name="Mask Group 28" transform="translate(-1422 -3021)" clip-path="url(#clip-path)">
    <g id="Group_28" data-name="Group 28" transform="translate(-1132.855 1108.527)">
      <g id="Group_27" data-name="Group 27" transform="translate(2489.07 1879.582)">
        <path id="Path_57" data-name="Path 57" d="M2597.638,1988.577q0,52.428.051,104.856c.006,2.552-.6,3.841-3.254,4.583-21.864,6.1-43.661,12.449-65.529,18.536a30.86,30.86,0,0,1-38.778-22.335,38.542,38.542,0,0,1-1.035-9.709q-.013-74.38-.02-148.759c0-17.36,8.406-28.249,25.231-33.026q39.72-11.274,79.394-22.713c3.245-.942,4-.49,3.987,2.985-.124,35.194-.076,70.387-.076,105.582Z" transform="translate(-2489.07 -1879.582)" fill="#c4e5e2"/>
        <path id="Path_58" data-name="Path 58" d="M2595.653,2040.42c-.075-41.072,29.939-73.84,68.59-78.237,40.978-4.661,78.043,23.726,84.933,63.3a75.965,75.965,0,0,1-9.813,53.32c-1.393,2.35-1.2,3.58.684,5.436,11.633,11.451,23.1,23.075,34.721,34.534,1.781,1.756,1.871,6.317,0,8.113-5.931,5.693-8.133,7.956-13.807,13.9-1.851,1.94-6.4,1.971-8.333,0-11.44-11.644-23.089-23.082-34.532-34.723-1.9-1.928-3.135-1.946-5.394-.6-48.364,28.867-110.381-1.888-116.657-57.81C2595.723,2044.785,2595.728,2041.869,2595.653,2040.42Zm123.764-1.166a46.4,46.4,0,1,0-46,46.328A46.33,46.33,0,0,0,2719.417,2039.254Z" transform="translate(-2440.742 -1842.355)" fill="#c4e5e2"/>
        <path id="Path_59" data-name="Path 59" d="M2740.3,2091.606a83.33,83.33,0,0,0,1.353-19.592c-1.161-42.3-34.321-80.325-76.07-87.209a82.409,82.409,0,0,0-14.047-1.416c-2.043.017-2.691-.656-2.689-2.7q.07-38.8-.026-77.6c0-1.8.693-2.537,2.335-3,22.4-6.33,44.7-13.083,67.22-18.969,20.74-5.421,38.926,9.552,39,31.506.095,28.044.036,56.087.041,84.131q0,32.636.009,65.273c.017,11.984-4.469,21.585-14.669,28.236C2742.176,2090.639,2741.539,2090.931,2740.3,2091.606Z" transform="translate(-2416.633 -1879.391)" fill="#c4e5e2"/>
        <path id="Path_60" data-name="Path 60" d="M2584.968,1954.519c0-23.824.036-47.648-.047-71.472-.01-2.865.347-3.789,3.536-2.7q27.6,9.4,55.336,18.382c2.5.814,3.315,1.942,3.305,4.571q-.148,41,0,81.994c.007,2.561-.734,3.751-3.2,4.711a89.375,89.375,0,0,0-44.231,36.5c-1.531,2.433-3.048,3.436-5.957,3.37-8.737-.2-8.74-.068-8.74-8.963Z" transform="translate(-2445.608 -1879.436)" fill="#c4e5e2"/>
      </g>
    </g>
  </g>
</svg>
