<svg xmlns="http://www.w3.org/2000/svg" xmlns:xlink="http://www.w3.org/1999/xlink" width="439" height="518" viewBox="0 0 439 518">
  <defs>
    <clipPath id="clip-path">
      <path id="Rectangle_54" data-name="Rectangle 54" d="M0,0H399a40,40,0,0,1,40,40V478a40,40,0,0,1-40,40H40A40,40,0,0,1,0,478V0A0,0,0,0,1,0,0Z" transform="translate(1427 2469)" fill="#f4f4f4"/>
    </clipPath>
  </defs>
  <g id="Mask_Group_29" data-name="Mask Group 29" transform="translate(-1427 -2469)" clip-path="url(#clip-path)">
    <g id="Group_30" data-name="Group 30" transform="translate(1225.16 2404.703)">
      <g id="Group_29" data-name="Group 29" transform="translate(137.225 18.966)">
        <path id="Path_61" data-name="Path 61" d="M418.09,125.367c0,13.563-.093,27.126.033,40.688.087,9.449-3.314,17.238-9.983,23.88q-39.877,39.715-79.617,79.571-18.482,18.48-36.966,36.957c-13.865,13.84-31.856,13.842-45.687.015Q205.121,265.743,164.382,225c-13.7-13.705-13.689-31.719.046-45.457Q222.593,121.36,280.74,63.163a33.222,33.222,0,0,1,24.945-10.307c26.928.168,53.858.043,80.786.063,16.58.012,28.439,9.914,31.315,26.143a27.455,27.455,0,0,1,.292,4.727Q418.108,104.578,418.09,125.367ZM347.5,93.336a30.262,30.262,0,1,0,30.177,30.19A30.393,30.393,0,0,0,347.5,93.336Z" transform="translate(-134.01 -12.516)" fill="#c4e5e2"/>
        <path id="Path_62" data-name="Path 62" d="M142.753,185.773c-6.105-9.418-7.1-18.879-3.24-28.875a29.616,29.616,0,0,1,6.915-10.258Q205.672,87.411,264.905,28.172a30.4,30.4,0,0,1,22.4-9.206c28.024.03,56.048-.021,84.072.033A30.088,30.088,0,0,1,398.74,37.551a2.792,2.792,0,0,1,.381,2.25c-2.85-.276-5.773-.64-8.723-.636-27.232.039-54.466.123-81.7-.015-15.277-.079-28.048,5.254-38.833,16.081q-57.654,57.875-115.524,115.537A62.2,62.2,0,0,0,142.753,185.773Z" transform="translate(-137.225 -18.966)" fill="#c4e5e2"/>
      </g>
    </g>
  </g>
</svg>
