<svg xmlns="http://www.w3.org/2000/svg" width="2498.259" height="2488.654" viewBox="0 0 2498.259 2488.654">
  <g id="Group_16" data-name="Group 16" transform="translate(2061 3193.189)">
    <g id="Group_1" data-name="Group 1">
      <path id="Path_9" data-name="Path 9" d="M976.535,54.8c463.019,259.158,943.473,256.477,960.475,822.974S1372.694,1847.718,886,1942.634-132.864,1489.582,29.912,1001.425,513.516-204.356,976.535,54.8Z" transform="matrix(0.342, -0.94, 0.94, 0.342, -2061, -1372.653)" fill="#24b4a9" opacity="0.118"/>
      <path id="Path_10" data-name="Path 10" d="M647.256,3.76c357.553-47.629,951.013,364.811,980.053,805.287s-442.241,757.613-905.265,819.516S18.209,1450.452.714,972.133,289.7,51.389,647.256,3.76Z" transform="matrix(0.342, -0.94, 0.94, 0.342, -1823.658, -1462.268)" fill="#24b4a9" opacity="0.118"/>
      <path id="Path_11" data-name="Path 11" d="M687.275,10.684c354.312,83.918,819.238,400.85,704,719.528s-369.67,772.83-704,676.134S31.779,1364.479,1.752,856.824,332.964-73.234,687.275,10.684Z" transform="matrix(0.342, -0.94, 0.94, 0.342, -1686.822, -1544.287)" fill="#24b4a9" opacity="0.118"/>
      <path id="Path_12" data-name="Path 12" d="M603.635,3.151c310.875-49.714,705.12,502.657,589.178,686.261s-141.991,523.437-508.269,504.273S3.02,813.218.023,584.561,292.76,52.865,603.635,3.151Z" transform="matrix(0.342, -0.94, 0.94, 0.342, -1548.497, -1582.949)" fill="#24b4a9" opacity="0.118"/>
    </g>
  </g>
</svg>
