<svg xmlns="http://www.w3.org/2000/svg" xmlns:xlink="http://www.w3.org/1999/xlink" width="439" height="518" viewBox="0 0 439 518">
  <defs>
    <clipPath id="clip-path">
      <path id="Rectangle_50" data-name="Rectangle 50" d="M40,0H399a40,40,0,0,1,40,40V518a0,0,0,0,1,0,0H40A40,40,0,0,1,0,478V40A40,40,0,0,1,40,0Z" transform="translate(968 3021)" fill="#f4f4f4"/>
    </clipPath>
  </defs>
  <g id="Mask_Group_27" data-name="Mask Group 27" transform="translate(-968 -3021)" clip-path="url(#clip-path)">
    <g id="Group_26" data-name="Group 26" transform="translate(-1856.725 2583.018)">
      <g id="Group_25" data-name="Group 25" transform="translate(2804.609 416.982)">
        <path id="Path_54" data-name="Path 54" d="M2862.489,552.126q0,56.783,0,113.566c0,13.461-7.848,21.3-21.314,21.3-5.523,0-11.047.025-16.569,0-11.675-.066-19.966-8.269-19.973-19.905q-.047-73.8-.021-147.606,0-40.665.011-81.333c0-13.29,7.864-21.14,21.158-21.147q8.135,0,16.269,0c12.276.03,20.428,8.111,20.434,20.354Q2862.513,494.74,2862.489,552.126Z" transform="translate(-2804.61 -416.98)" fill="#c4e5e2"/>
        <path id="Path_55" data-name="Path 55" d="M2926.4,552q0,57.384.018,114.768c0,5.822-1.812,10.85-6.032,14.889a18.614,18.614,0,0,1-13.06,5.324c-6.125.063-12.25.034-18.376.018-12.237-.034-20.427-8.174-20.433-20.378q-.026-56.783,0-113.563,0-57.384.017-114.768c0-13.472,7.829-21.279,21.324-21.284,5.624,0,11.247-.046,16.87.008,11.3.11,19.633,8.31,19.652,19.616Q2926.471,494.31,2926.4,552Z" transform="translate(-2791.379 -416.983)" fill="#c4e5e2"/>
        <path id="Path_56" data-name="Path 56" d="M3048.877,660.666c.035,8.528-5.087,15.992-13.062,18.488-6.789,2.124-13.667,4.034-20.6,5.6-10.644,2.4-20.095-3.759-23.036-14.693q-11.682-43.419-23.315-86.853-17.973-67.11-35.911-134.232c-3.324-12.429,2.315-22.2,14.732-25.548,5.326-1.434,10.644-2.89,15.98-4.278,11.958-3.111,21.8,2.534,24.982,14.39q12.1,45.021,24.127,90.061,17.553,65.512,35.118,131.021A20.074,20.074,0,0,1,3048.877,660.666Z" transform="translate(-2778.232 -416.709)" fill="#c4e5e2"/>
      </g>
    </g>
  </g>
</svg>
