<svg xmlns="http://www.w3.org/2000/svg" width="730.646" height="729.583" viewBox="0 0 730.646 729.583">
  <g id="Group_34" data-name="Group 34" transform="matrix(0.966, 0.259, -0.259, 0.966, 1291.287, 3571.595)">
    <g id="Group_1" data-name="Group 1" transform="translate(-2061 -3193.189)">
      <path id="Path_9" data-name="Path 9" d="M263.149,14.768C387.919,84.6,517.388,83.881,521.969,236.536S369.9,497.908,238.753,523.485-35.8,401.4,8.06,269.856,138.378-55.068,263.149,14.768Z" transform="matrix(0.342, -0.94, 0.94, 0.342, 0, 490.583)" fill="#1db1a6" opacity="0.118"/>
      <path id="Path_10" data-name="Path 10" d="M174.417,1.013c96.351-12.835,256.271,98.306,264.1,217S319.342,422.171,194.57,438.852,4.907,390.856.192,261.962,78.067,13.848,174.417,1.013Z" transform="matrix(0.342, -0.94, 0.94, 0.342, 63.957, 466.434)" fill="#1db1a6" opacity="0.118"/>
      <path id="Path_11" data-name="Path 11" d="M185.2,2.879C280.678,25.493,405.963,110.9,374.909,196.772S275.293,405.028,185.2,378.971,8.564,367.689.472,230.89,89.724-19.734,185.2,2.879Z" transform="matrix(0.342, -0.94, 0.94, 0.342, 100.83, 444.333)" fill="#1db1a6" opacity="0.118"/>
      <path id="Path_12" data-name="Path 12" d="M162.663.849c83.772-13.4,190.01,135.452,158.767,184.928S283.167,326.828,184.465,321.664.814,219.139.006,157.523,78.891,14.246,162.663.849Z" transform="matrix(0.342, -0.94, 0.94, 0.342, 138.105, 433.914)" fill="#1db1a6" opacity="0.118"/>
    </g>
  </g>
</svg>
