<svg xmlns="http://www.w3.org/2000/svg" xmlns:xlink="http://www.w3.org/1999/xlink" width="439" height="518" viewBox="0 0 439 518">
  <defs>
    <clipPath id="clip-path">
      <path id="Rectangle_44" data-name="Rectangle 44" d="M40,0H399a40,40,0,0,1,40,40V478a40,40,0,0,1-40,40H0a0,0,0,0,1,0,0V40A40,40,0,0,1,40,0Z" transform="translate(514 3021)" fill="#f4f4f4"/>
    </clipPath>
  </defs>
  <g id="Mask_Group_23" data-name="Mask Group 23" transform="translate(-514 -3021)" clip-path="url(#clip-path)">
    <path id="star" d="M301.069,134.664a22.072,22.072,0,0,0-12.238-37.645L214.316,86.191a9.733,9.733,0,0,1-7.333-5.33L173.67,13.347a22.071,22.071,0,0,0-39.58,0L100.77,80.867a9.743,9.743,0,0,1-7.339,5.33L18.916,97.025A22.072,22.072,0,0,0,6.678,134.67l53.914,52.552a9.757,9.757,0,0,1,2.81,8.627L50.683,270.056a21.607,21.607,0,0,0,4.813,17.9A22.3,22.3,0,0,0,82.7,293.318l66.639-35.039a9.975,9.975,0,0,1,9.071,0l66.645,35.039a21.84,21.84,0,0,0,10.266,2.57,22.131,22.131,0,0,0,16.934-7.937,21.6,21.6,0,0,0,4.813-17.9l-12.725-74.206a9.751,9.751,0,0,1,2.81-8.627Z" transform="translate(576.85 2919.066) rotate(30)" fill="#c4e5e2"/>
  </g>
</svg>
