<svg xmlns="http://www.w3.org/2000/svg" xmlns:xlink="http://www.w3.org/1999/xlink" width="439" height="518" viewBox="0 0 439 518">
  <defs>
    <clipPath id="clip-path">
      <path id="Rectangle_43" data-name="Rectangle 43" d="M40,0H399a40,40,0,0,1,40,40V518a0,0,0,0,1,0,0H40A40,40,0,0,1,0,478V40A40,40,0,0,1,40,0Z" transform="translate(60 3021)" fill="#f4f4f4"/>
    </clipPath>
  </defs>
  <g id="Mask_Group_22" data-name="Mask Group 22" transform="translate(-60 -3021)" clip-path="url(#clip-path)">
    <path id="Icon_awesome-github" data-name="Icon awesome-github" d="M150.687.563C65.31.563,0,65.38,0,150.758,0,219.022,42.966,277.438,104.336,298c7.879,1.416,10.464-32.317,10.464-45.243,0,0-43.089,9.233-52.137-18.343,0,0-7.017-17.913-17.112-22.529,0,0-14.1-9.664.985-9.48A32.492,32.492,0,0,1,70.3,218.284c13.481,23.76,50.291-3.816,54.723-7.879-34.409-3.816-69.127-8.8-69.127-68.019,0-16.928,4.678-25.422,14.527-36.256-1.6-4-6.833-20.5,1.6-41.8,12.865-4,42.473,16.62,42.473,16.62a145.419,145.419,0,0,1,77.313,0s29.608-20.683,42.473-16.62c8.433,21.36,3.2,37.795,1.6,41.8,9.849,10.9,15.881,19.39,15.881,36.256,0,59.4-36.256,64.141-70.666,68.019,5.663,4.863,10.464,14.1,10.464,28.562,0,20.744-.185,46.413-.185,51.46,0,4,2.832,8.864,10.649,7.448,61.555-20.436,103.29-78.852,103.29-147.117C305.314,65.38,236.065.563,150.687.563Z" transform="translate(24.319 2981.751)" fill="#c4e5e2"/>
  </g>
</svg>
