<svg xmlns="http://www.w3.org/2000/svg" xmlns:xlink="http://www.w3.org/1999/xlink" width="439" height="518" viewBox="0 0 439 518">
  <defs>
    <clipPath id="clip-path">
      <path id="Rectangle_49" data-name="Rectangle 49" d="M40,0H399a40,40,0,0,1,40,40V518a0,0,0,0,1,0,0H40A40,40,0,0,1,0,478V40A40,40,0,0,1,40,0Z" transform="translate(973 2469)" fill="#f4f4f4"/>
    </clipPath>
  </defs>
  <g id="Mask_Group_26" data-name="Mask Group 26" transform="translate(-973 -2469)" clip-path="url(#clip-path)">
    <g id="Group_24" data-name="Group 24" transform="translate(-1811.005 209.291)">
      <g id="Group_23" data-name="Group 23" transform="translate(2731.005 2197.556)">
        <path id="Path_53" data-name="Path 53" d="M2887.033,2509.709c-86.535-.042-156.119-70.065-156.029-157.008.088-85.333,70.4-155.193,156.147-155.145,86.4.047,156.133,70.07,156.015,156.656C3043.05,2439.94,2972.952,2509.753,2887.033,2509.709Zm42.348-170.554c.283,4.918.611,10.1.871,15.279.537,10.719,8.249,18.068,18.748,17.818,11.172-.267,18.946-8.127,18.507-19.162q-1.055-26.617-2.55-53.216c-.767-13.406-10.26-23.266-23.45-24.083-18.072-1.119-36.17-1.807-54.26-2.625a18.033,18.033,0,0,0-6.182.816c-8.2,2.545-13.391,10.843-12.386,19.874,1.063,9.565,7.469,15.949,16.693,16.558,5.511.364,11.027.636,15.963.917l-56.545,56.545c-.266-4.626-.6-9.8-.858-14.975-.542-10.795-8.478-18.216-19.108-17.828-11.1.406-18.589,8.088-18.153,19.079q1.057,26.616,2.55,53.214c.777,13.655,10.633,23.468,24.128,24.186,17.734.943,35.478,1.722,53.219,2.544a18.973,18.973,0,0,0,6.2-.724c8.278-2.4,13.722-10.958,12.759-20.028-1.006-9.473-7.233-15.8-16.347-16.469-5.622-.412-11.259-.656-16.549-.955Z" transform="translate(-2731.005 -2197.556)" fill="#c4e5e2"/>
      </g>
    </g>
  </g>
</svg>
